<?xml version="1.0" standalone="no"?>
<!DOCTYPE svg PUBLIC "-//W3C//DTD SVG 20010904//EN"
 "http://www.w3.org/TR/2001/REC-SVG-20010904/DTD/svg10.dtd">
<svg version="1.0" xmlns="http://www.w3.org/2000/svg"
 width="596.000000pt" height="597.000000pt" viewBox="0 0 596.000000 597.000000"
 preserveAspectRatio="xMidYMid meet">

<g transform="translate(0.000000,597.000000) scale(0.100000,-0.100000)"
fill="#000000" stroke="none">
<path d="M860 3035 l0 -1756 963 4 c1033 4 1015 4 1237 58 434 106 691 373
750 777 20 133 9 319 -25 422 -30 94 -72 182 -118 250 -82 120 -239 249 -347
285 l-51 17 88 51 c254 151 376 388 360 697 -27 504 -317 815 -860 922 -110
22 -129 22 -1054 26 l-943 3 0 -1756z m1815 1140 c38 -8 102 -30 142 -49 304
-145 333 -552 49 -682 -129 -59 -121 -58 -763 -62 l-593 -3 0 405 0 406 548 0
c444 0 560 -3 617 -15z m-7 -1391 c112 -23 220 -68 299 -124 83 -58 129 -109
168 -187 26 -52 29 -69 30 -153 0 -82 -4 -103 -26 -150 -36 -77 -108 -144
-204 -190 -168 -80 -267 -90 -932 -90 l-493 0 0 455 0 455 540 0 c455 0 553
-3 618 -16z"/>
<path d="M4468 1931 c-109 -35 -185 -111 -218 -218 -62 -201 31 -394 219 -453
201 -64 404 32 461 217 48 155 2 313 -117 404 -84 64 -233 86 -345 50z"/>
</g>
</svg>
