<?xml version="1.0" encoding="UTF-8"?>
<svg xmlns="http://www.w3.org/2000/svg" xmlns:xlink="http://www.w3.org/1999/xlink" width="204px" height="68px" viewBox="0 0 204 68" version="1.1">
<g id="surface1">
<path style=" stroke:none;fill-rule:nonzero;fill:rgb(0%,0%,0%);fill-opacity:1;" d="M 2.054688 6.375 L 2.054688 8.5 L 12.316406 8.5 L 12.316406 63.75 L 14.710938 63.75 L 14.710938 8.5 L 25.351562 8.5 L 25.25 6.515625 L 25.148438 4.605469 L 13.617188 4.390625 L 2.054688 4.25 Z M 29.082031 34 L 29.082031 63.75 L 31.132812 63.75 L 31.132812 51.140625 C 31.132812 44.269531 31.304688 37.398438 31.511719 35.914062 C 32.949219 25.144531 40.40625 21.816406 43.554688 30.527344 C 44.582031 33.433594 44.820312 37.117188 44.820312 50.789062 L 44.820312 63.75 L 46.871094 63.75 L 46.871094 50.078125 C 46.871094 33.503906 46.53125 30.175781 44.339844 25.855469 C 41.195312 19.550781 35.582031 19.621094 32.433594 25.996094 L 31.132812 28.617188 L 31.132812 4.25 L 29.082031 4.25 Z M 75.953125 33.929688 L 75.953125 63.75 L 83.652344 63.75 C 93.78125 63.75 96.210938 62.617188 98.5 56.878906 C 99.664062 53.902344 100.417969 48.023438 100.074219 44.414062 C 99.699219 40.800781 98.226562 36.125 96.996094 34.566406 L 95.832031 33.222656 L 97.167969 30.742188 C 98.808594 27.625 99.355469 24.367188 99.117188 19.265625 C 98.808594 13.527344 97.476562 9.421875 94.945312 6.730469 L 92.925781 4.605469 L 84.441406 4.390625 L 75.953125 4.109375 Z M 90.425781 14.589844 C 91.144531 14.875 92.171875 15.9375 92.753906 17.070312 C 93.644531 18.769531 93.78125 19.480469 93.675781 22.101562 C 93.609375 24.578125 93.371094 25.359375 92.410156 26.703125 C 91.316406 28.191406 90.90625 28.332031 86.183594 28.332031 L 81.085938 28.332031 L 81.085938 14.167969 L 85.125 14.167969 C 87.3125 14.167969 89.707031 14.378906 90.425781 14.589844 Z M 92.242188 39.597656 C 94.601562 41.863281 95.421875 45.898438 94.226562 49.511719 C 93.199219 52.488281 91.796875 53.125 86.21875 53.125 L 81.085938 53.125 L 81.085938 38.25 L 85.980469 38.25 C 89.984375 38.25 91.078125 38.535156 92.242188 39.597656 Z M 131.894531 10.554688 L 130.183594 10.980469 L 130.082031 16.433594 L 129.976562 21.957031 L 126.25 21.957031 L 126.25 31.167969 L 129.945312 31.167969 L 130.082031 42.996094 C 130.183594 54.472656 130.21875 55.039062 131.109375 58.152344 C 132.167969 61.910156 133.777344 63.820312 136.238281 64.316406 C 138.085938 64.671875 141.304688 63.253906 141.269531 62.121094 C 141.199219 60.207031 140.070312 54.542969 139.761719 54.542969 C 139.59375 54.542969 138.910156 54.753906 138.292969 54.964844 C 136.71875 55.605469 135.554688 54.1875 135.144531 51.070312 C 134.972656 49.652344 134.800781 44.625 134.800781 39.808594 L 134.800781 31.167969 L 140.617188 31.167969 L 140.617188 21.957031 L 135.144531 21.957031 L 135.144531 15.9375 C 135.144531 9.136719 135.488281 9.703125 131.894531 10.554688 Z M 58.746094 21.25 C 55.597656 22.878906 52.964844 27.484375 51.59375 33.644531 C 50.5 38.605469 50.5 47.742188 51.628906 52.488281 C 52.621094 56.738281 54.503906 60.703125 56.453125 62.617188 C 58.847656 64.882812 63.5 64.742188 66.03125 62.261719 C 67.058594 61.269531 68.359375 59.5 68.90625 58.4375 L 69.933594 56.453125 L 69.144531 55.179688 C 68.359375 53.832031 68.324219 53.832031 67.195312 55.957031 C 64.628906 60.5625 59.632812 61.414062 56.625 57.730469 C 54.914062 55.675781 53.03125 49.867188 53.03125 46.539062 L 53.03125 44.625 L 71.164062 44.625 L 71.164062 41.226562 C 71.164062 32.9375 69.042969 25.710938 65.757812 22.808594 C 63.84375 21.109375 60.523438 20.328125 58.746094 21.25 Z M 65.3125 26.847656 C 67.402344 29.113281 69.113281 34.707031 69.113281 39.382812 L 69.113281 41.082031 L 52.929688 41.082031 L 53.132812 38.109375 C 53.339844 34.921875 54.742188 30.316406 56.144531 28.191406 C 58.503906 24.507812 62.542969 23.941406 65.3125 26.847656 Z M 109.210938 21.746094 C 104.386719 24.792969 101.613281 35.628906 102.640625 47.457031 C 103.121094 52.839844 103.941406 56.382812 105.445312 59.5 C 108.730469 66.371094 115.335938 66.867188 118.484375 60.5625 L 119.75 58.011719 L 119.75 63.75 L 124.539062 63.75 L 124.539062 21.957031 L 119.75 21.957031 L 119.75 27.199219 L 118.824219 25.359375 C 116.53125 20.964844 112.699219 19.480469 109.210938 21.746094 Z M 116.328125 31.519531 C 116.875 32.085938 117.765625 33.789062 118.277344 35.203125 C 119.132812 37.472656 119.234375 38.390625 119.234375 42.855469 C 119.234375 47.316406 119.132812 48.238281 118.277344 50.503906 C 116.875 54.328125 115.609375 55.460938 113.109375 55.109375 C 110.578125 54.824219 109.109375 52.914062 108.117188 48.875 C 106.472656 42.214844 107.980469 33.433594 111.195312 30.953125 C 112.253906 30.175781 115.367188 30.457031 116.328125 31.519531 Z M 149.925781 22.597656 C 147.632812 24.226562 145.375 28.6875 144.3125 33.574219 C 143.21875 38.675781 143.21875 47.035156 144.3125 52.132812 C 145.304688 56.597656 147.121094 60.351562 149.34375 62.476562 C 151.976562 64.953125 156.1875 64.8125 158.820312 62.121094 C 163.507812 57.375 165.5625 45.898438 163.746094 34.777344 C 161.96875 24.082031 155.640625 18.488281 149.925781 22.597656 Z M 157.042969 32.582031 C 159.332031 35.984375 160.050781 43.207031 158.683594 48.875 C 156.835938 56.3125 151.875 56.949219 149.378906 50.078125 C 148.863281 48.664062 148.660156 46.75 148.554688 43.351562 C 148.453125 39.242188 148.554688 38.25 149.242188 36.125 C 150.574219 32.015625 152.148438 30.316406 154.167969 30.601562 C 155.261719 30.8125 156.324219 31.519531 157.042969 32.582031 Z M 176.40625 22.3125 C 175.652344 22.878906 174.558594 24.152344 173.941406 25.144531 C 173.328125 26.136719 172.746094 26.917969 172.644531 26.917969 C 172.539062 26.917969 172.4375 25.785156 172.4375 24.4375 L 172.4375 21.957031 L 167.988281 21.957031 L 167.988281 63.75 L 172.746094 63.75 L 172.847656 50.714844 C 172.949219 38.816406 173.019531 37.472656 173.667969 35.699219 C 176.03125 29.113281 179.863281 28.972656 181.914062 35.347656 C 182.667969 37.613281 182.703125 38.390625 182.703125 50.714844 L 182.703125 63.75 L 187.835938 63.75 L 187.835938 51.355469 C 187.835938 37.046875 187.527344 33.148438 185.988281 28.476562 C 183.96875 22.523438 179.691406 19.761719 176.40625 22.3125 Z M 193.136719 54.1875 C 191.496094 57.515625 192.28125 63.253906 194.472656 64.105469 C 196.96875 65.097656 198.679688 60.703125 197.789062 55.746094 C 197.140625 52.203125 194.503906 51.285156 193.136719 54.1875 Z M 193.136719 54.1875 "/>
</g>
</svg>
